HIERARCHY
ROOT SpineBase
{
  OFFSET 0.000000 0.000000 0.000000
  CHANNELS 6 Xposition Yposition Zposition Zrotation Xrotation Yrotation
  JOINT SpineMid
  {
    OFFSET 0.000000 28.755734 0.000000
    CHANNELS 3 Zrotation Xrotation Yrotation
    JOINT SpineShoulder
    {
      OFFSET -0.014034 21.416155 -0.715439
      CHANNELS 3 Zrotation Xrotation Yrotation
      JOINT Neck
      {
        OFFSET -0.031211 7.102587 -0.543718
        CHANNELS 3 Zrotation Xrotation Yrotation
        JOINT Head
        {
          OFFSET -3.549197 12.226725 0.418904
          CHANNELS 3 Zrotation Xrotation Yrotation
          End Site
          {
            OFFSET 0 0 0
          }
        }
      }
      JOINT ShoulderLeft
      {
        OFFSET -15.173570 -3.894518 7.726563
        CHANNELS 3 Zrotation Xrotation Yrotation
        JOINT ElbowLeft
        {
          OFFSET -3.785189 -23.852742 2.206602
          CHANNELS 3 Zrotation Xrotation Yrotation
          JOINT WristLeft
          {
            OFFSET 2.299649 -22.760420 -6.214113
            CHANNELS 3 Zrotation Xrotation Yrotation
            JOINT HandLeft
            {
              OFFSET -0.228767 -6.588602 -0.532652
              CHANNELS 3 Zrotation Xrotation Yrotation
              JOINT HandTipLeft
              {
                OFFSET 1.329386 -5.608134 -0.805494
                CHANNELS 3 Zrotation Xrotation Yrotation
                End Site
                {
                  OFFSET 0 0 0
                }
              }
              JOINT ThumbLeft
              {
                OFFSET -3.255037 0.116424 -1.470994
                CHANNELS 3 Zrotation Xrotation Yrotation
                End Site
                {
                  OFFSET 0 0 0
                }
              }
            }
          }
        }
      }
      JOINT ShoulderRight
      {
        OFFSET 12.947820 -2.424282 -8.312482
        CHANNELS 3 Zrotation Xrotation Yrotation
        JOINT ElbowRight
        {
          OFFSET 6.098684 -23.953190 -3.438993
          CHANNELS 3 Zrotation Xrotation Yrotation
          JOINT WristRight
          {
            OFFSET -3.129823 -20.833059 -4.099063
            CHANNELS 3 Zrotation Xrotation Yrotation
            JOINT HandRight
            {
              OFFSET -2.119034 -5.293278 -1.205005
              CHANNELS 3 Zrotation Xrotation Yrotation
              JOINT HandTipRight
              {
                OFFSET -1.227760 -5.590646 -0.461789
                CHANNELS 3 Zrotation Xrotation Yrotation
                End Site
                {
                  OFFSET 0 0 0
                }
              }
              JOINT ThumbRight
              {
                OFFSET -2.622037 0.574730 -3.195711
                CHANNELS 3 Zrotation Xrotation Yrotation
                End Site
                {
                  OFFSET 0 0 0
                }
              }
            }
          }
        }
      }
    }
  }
  JOINT HipLeft
  {
    OFFSET -6.499510 0.641818 -0.410146
    CHANNELS 3 Zrotation Xrotation Yrotation
    JOINT KneeLeft
    {
      OFFSET 3.956527 -27.729987 2.614845
      CHANNELS 3 Zrotation Xrotation Yrotation
      JOINT AnkleLeft
      {
        OFFSET 6.817703 -32.194338 8.867040
        CHANNELS 3 Zrotation Xrotation Yrotation
        JOINT FootLeft
        {
          OFFSET -4.276929 -4.195509 -10.516487
          CHANNELS 3 Zrotation Xrotation Yrotation
          End Site
          {
            OFFSET 0 0 0
          }
        }
      }
    }
  }
  JOINT HipRight
  {
    OFFSET 5.925184 1.242329 -6.141228
    CHANNELS 3 Zrotation Xrotation Yrotation
    JOINT KneeRight
    {
      OFFSET 4.533985 -29.463404 3.024291
      CHANNELS 3 Zrotation Xrotation Yrotation
      JOINT AnkleRight
      {
        OFFSET 5.834102 -30.356464 6.331831
        CHANNELS 3 Zrotation Xrotation Yrotation
        JOINT FootRight
        {
          OFFSET -4.874870 -4.287189 -9.828033
          CHANNELS 3 Zrotation Xrotation Yrotation
          End Site
          {
            OFFSET 0 0 0
          }
        }
      }
    }
  }
}
MOTION
Frames: 13
Frame Time: 0.033333
30.200831 66.002360 336.504438 -0.000000 0.000000 24.762239 -0.000000 0.000000 -24.762239 -0.000000 0.000000 0.000000 -0.000000 0.000000 0.000000 0.000000 0.000000 0.000000 -0.000000 0.000000 0.000000 -0.000000 0.000000 0.000000 -0.000000 0.000000 0.000000 -0.000000 0.000000 0.000000 0.000000 0.000000 0.000000 0.000000 0.000000 0.000000 -0.000000 0.000000 0.000000 -0.000000 0.000000 0.000000 -0.000000 0.000000 0.000000 -0.000000 0.000000 0.000000 0.000000 0.000000 0.000000 0.000000 0.000000 0.000000 -0.000000 0.000000 -24.762239 -0.000000 0.000000 0.000000 -0.000000 0.000000 0.000000 0.000000 0.000000 0.000000 -0.000000 0.000000 -24.762239 -0.000000 0.000000 0.000000 -0.000000 0.000000 0.000000 0.000000 0.000000 0.000000
30.180748 66.005972 336.499538 -0.000921 0.007882 24.758481 -0.002465 -0.007544 -24.758481 -0.000000 0.000000 0.000000 -0.000000 0.000000 0.000000 0.000000 0.000000 0.000000 -0.000000 0.000000 0.000000 0.626706 2.616097 0.078420 2.894272 -4.819966 -0.086929 -4.517208 1.031125 0.172624 0.000000 0.000000 0.000000 0.000000 0.000000 0.000000 -0.000000 0.000000 0.000000 -0.000000 0.000000 0.000000 -0.000000 0.000000 0.000000 -0.228695 -1.126276 0.264090 0.000000 0.000000 0.000000 0.000000 0.000000 0.000000 -0.002465 -0.007544 -24.758481 -0.000000 0.000000 0.000000 -1.849764 1.901688 2.578781 0.000000 0.000000 0.000000 -0.002465 -0.007544 -24.758481 -0.000000 0.000000 0.000000 -0.228891 0.821449 -0.400223 0.000000 0.000000 0.000000
30.160870 66.009216 336.494141 -0.004185 0.015596 24.747557 -0.002728 -0.015915 -24.747557 -0.000000 0.000000 0.000000 -0.000000 0.000000 0.000000 0.000000 0.000000 0.000000 -0.000000 0.000000 0.000000 1.203056 5.009289 0.123738 5.952850 -9.707125 0.277934 -9.108515 2.687335 0.652175 0.000000 0.000000 0.000000 0.000000 0.000000 0.000000 -0.000000 0.000000 0.000000 -0.000000 0.000000 0.000000 1.023115 -0.185635 -0.157565 -1.482171 -1.771860 0.622082 0.000000 0.000000 0.000000 0.000000 0.000000 0.000000 -0.002728 -0.015915 -24.747557 -0.000000 0.000000 0.000000 -2.773218 2.794854 3.839640 0.000000 0.000000 0.000000 -0.002728 -0.015915 -24.747557 -0.000000 0.000000 0.000000 -0.325985 1.201742 -0.599455 0.000000 0.000000 0.000000
30.141197 66.012092 336.488246 -0.009794 0.023139 24.729484 -0.000784 -0.025114 -24.729482 -0.000000 0.000000 0.000000 -0.000000 0.000000 0.000000 0.000000 0.000000 0.000000 -0.000000 0.000000 0.000000 1.718700 7.125706 0.141962 9.003237 -14.481192 1.070837 -13.511574 4.939850 1.460804 0.000000 0.000000 0.000000 0.000000 0.000000 0.000000 -0.000000 0.000000 0.000000 -0.000000 0.000000 0.000000 1.503162 -0.297610 -0.220454 -2.207057 -2.224822 0.827601 0.000000 0.000000 0.000000 0.000000 0.000000 0.000000 -0.000784 -0.025114 -24.729482 -0.000000 0.000000 0.000000 -2.893533 2.919722 3.991693 0.000000 0.000000 0.000000 -0.000784 -0.025114 -24.729482 -0.000000 0.000000 0.000000 -0.302843 1.166584 -0.613060 0.000000 0.000000 0.000000
30.121728 66.014600 336.481854 -0.017750 0.030511 24.704280 0.003374 -0.035136 -24.704274 -0.000000 0.000000 0.000000 -0.000000 0.000000 0.000000 0.000000 0.000000 0.000000 -0.000000 0.000000 0.000000 2.164157 8.920845 0.140137 11.790889 -18.934393 2.176555 -17.422003 7.703260 2.557121 0.000000 0.000000 0.000000 0.000000 0.000000 0.000000 -0.000000 0.000000 0.000000 -0.940953 -0.024003 0.188328 2.902813 -0.407774 -0.462112 -2.931896 -2.420177 0.972472 0.000000 0.000000 0.000000 0.000000 0.000000 0.000000 0.003374 -0.035136 -24.704274 -0.000000 0.000000 0.000000 -2.227781 2.307134 3.061524 0.000000 0.000000 0.000000 0.003374 -0.035136 -24.704274 -0.000000 0.000000 0.000000 -0.158590 0.714578 -0.440997 0.000000 0.000000 0.000000
30.102464 66.016741 336.474964 -0.028051 0.037710 24.671971 0.009749 -0.045976 -24.671958 -0.000000 0.000000 0.000000 -0.000000 0.000000 0.000000 0.000000 0.000000 0.000000 -0.000000 0.000000 0.000000 2.531256 10.360850 0.125574 14.008378 -22.869688 3.387794 -20.541244 10.856203 3.834458 0.000000 0.000000 0.000000 0.000000 0.000000 0.000000 -0.000000 0.000000 0.000000 -1.092839 0.023599 0.211399 3.494577 -0.595818 -0.524222 -3.663991 -2.367936 1.061212 0.000000 0.000000 0.000000 0.000000 0.000000 0.000000 0.009749 -0.045976 -24.671958 -0.000000 0.000000 0.000000 -0.688535 0.793754 0.900339 0.000000 0.000000 0.000000 0.009749 -0.045976 -24.671958 -0.716140 -0.442974 -0.237372 0.714320 0.445902 0.231824 0.000000 0.000000 0.000000
30.077306 66.022227 336.465830 -0.048938 0.044642 24.633437 0.025877 -0.060977 -24.633404 -0.000000 0.000000 0.000000 -0.000000 0.000000 0.000000 0.000000 0.000000 0.000000 -0.000000 0.000000 0.000000 3.241052 12.838823 0.051071 17.095367 -29.581158 5.852271 -24.143405 17.313201 6.136018 0.000000 0.000000 0.000000 0.000000 0.000000 0.000000 -0.000000 0.000000 0.000000 -1.268823 0.094899 0.236023 4.167275 -0.602753 -0.685120 -5.047693 -1.527860 1.072072 0.000000 0.000000 0.000000 0.000000 0.000000 0.000000 0.025877 -0.060977 -24.633404 -0.000000 0.000000 0.000000 2.510564 -2.787948 -3.697213 0.000000 0.000000 0.000000 0.025877 -0.060977 -24.633404 -0.946348 -0.467155 -0.291250 0.943993 0.471896 0.283504 0.000000 0.000000 0.000000
30.061344 66.024716 336.457944 -0.064805 0.042279 24.603988 0.041318 -0.065421 -24.603941 -0.000000 0.000000 0.000000 -0.000000 0.000000 0.000000 0.000000 0.000000 0.000000 -0.000000 0.000000 0.000000 3.569082 14.009221 0.008806 18.594656 -33.565410 7.440076 -27.092547 22.915986 8.680058 0.000000 0.000000 0.000000 0.000000 0.000000 0.000000 -0.000000 0.000000 0.000000 -1.388446 0.186586 0.246901 5.118821 -1.497510 -0.526484 -5.879547 0.480754 0.758393 0.000000 0.000000 0.000000 0.000000 0.000000 0.000000 0.041318 -0.065421 -24.603941 -0.000000 0.000000 0.000000 6.881575 -8.704061 -10.473816 0.000000 0.000000 0.000000 0.041318 -0.065421 -24.603941 -1.038527 -0.420440 -0.301532 1.527837 -0.739977 0.516934 0.000000 0.000000 0.000000
30.052089 66.028547 336.433617 -0.079449 0.052587 24.588797 0.050363 -0.080877 -24.588725 -0.000000 0.000000 0.000000 -0.000000 0.000000 0.000000 0.000000 0.000000 0.000000 -0.000000 0.000000 0.000000 3.675327 13.397713 -0.073165 17.092746 -32.521697 6.721773 -25.390238 21.141601 7.629920 0.000000 0.000000 0.000000 0.000000 0.000000 0.000000 -0.000000 0.000000 0.000000 -1.378165 0.212377 0.241301 5.334986 -1.352745 -0.643028 -6.219565 -0.668620 1.073587 0.000000 0.000000 0.000000 0.000000 0.000000 0.000000 0.050363 -0.080877 -24.588725 -0.000000 0.000000 0.000000 13.453367 -21.286022 -22.664263 0.000000 0.000000 0.000000 0.050363 -0.080877 -24.588725 -1.044559 -0.287455 -0.276087 2.417928 -3.623219 1.803422 0.000000 0.000000 0.000000
30.028501 66.019428 336.431469 -0.094386 0.064812 24.602943 0.058834 -0.098223 -24.602839 -0.000000 0.000000 0.000000 -0.000000 0.000000 0.000000 0.000000 0.000000 0.000000 -0.000000 0.000000 0.000000 3.250067 12.526825 0.025517 15.046868 -31.981078 5.736638 -22.608841 20.816014 6.653155 0.000000 0.000000 0.000000 0.000000 0.000000 0.000000 -0.000000 0.000000 0.000000 -1.265386 0.226828 0.216967 5.159006 -1.739872 -0.438686 -5.994398 -1.295191 1.125198 0.000000 0.000000 0.000000 0.000000 0.000000 0.000000 0.058834 -0.098223 -24.602839 -0.000000 0.000000 0.000000 15.241331 -26.305338 -26.682062 0.000000 0.000000 0.000000 0.058834 -0.098223 -24.602839 -0.814408 -0.111193 -0.192258 3.333249 -7.327310 3.726577 0.000000 0.000000 0.000000
30.014552 66.008027 336.447201 -0.077941 0.086764 24.550672 0.034845 -0.111304 -24.550580 -0.000000 0.000000 0.000000 -0.000000 0.000000 0.000000 0.000000 0.000000 0.000000 -0.000000 0.000000 0.000000 2.240481 10.438552 0.234822 12.211611 -28.665578 3.863386 -22.121398 18.918456 6.755031 0.000000 0.000000 0.000000 0.000000 0.000000 0.000000 -0.000000 0.000000 0.000000 -1.126143 0.331755 0.174646 5.147348 -2.238733 -0.238751 -6.451308 -1.269630 1.129006 0.000000 0.000000 0.000000 0.000000 0.000000 0.000000 0.034845 -0.111304 -24.550580 -0.000000 0.000000 0.000000 17.446290 -34.548277 -34.461092 0.000000 0.000000 0.000000 0.034845 -0.111304 -24.550580 -0.000000 0.000000 0.000000 12.890923 -27.647198 17.967796 0.000000 0.000000 0.000000
29.894468 65.995376 336.463046 -0.196364 0.145860 24.619776 0.117750 -0.214404 -24.619306 -0.000000 0.000000 0.000000 -0.586527 -0.790971 -0.213930 0.000000 0.000000 0.000000 -0.000000 0.000000 0.000000 1.112932 6.210482 0.259759 6.805615 -18.830774 1.171228 -15.947834 10.241900 3.326969 0.000000 0.000000 0.000000 0.000000 0.000000 0.000000 -0.000000 0.000000 0.000000 -0.870769 0.394959 0.114790 5.138717 -2.162017 -0.286001 -5.444024 -3.494798 1.568720 0.000000 0.000000 0.000000 0.000000 0.000000 0.000000 0.117750 -0.214404 -24.619306 -0.000000 0.000000 0.000000 17.610010 -35.388786 -35.625240 0.000000 0.000000 0.000000 0.117750 -0.214404 -24.619306 -0.000000 0.000000 0.000000 23.619792 -38.420089 31.434752 0.000000 0.000000 0.000000
29.862768 66.008241 336.506890 -0.125577 0.165055 24.185129 0.046934 -0.202015 -24.184865 -0.000000 0.000000 0.000000 -0.944661 -1.209949 -0.329756 0.000000 0.000000 0.000000 0.284375 1.080444 -0.148022 -0.078969 3.608879 0.549113 5.487999 -14.543583 0.425240 -13.040510 6.501608 1.951395 0.000000 0.000000 0.000000 0.000000 0.000000 0.000000 -0.000000 0.000000 0.000000 -0.981913 1.061204 0.042732 4.062577 -1.383933 -0.537673 -3.861061 -4.990400 1.785050 0.000000 0.000000 0.000000 0.000000 0.000000 0.000000 0.046934 -0.202015 -24.184865 -0.000000 0.000000 0.000000 16.185421 -28.750845 -30.869517 0.000000 0.000000 0.000000 0.046934 -0.202015 -24.184865 -0.000000 0.000000 0.000000 28.580211 -41.691535 36.721688 0.000000 0.000000 0.000000
